<?xml version="1.0" standalone="no"?>
<?xml-stylesheet type="text/css" href="style.css"?>
<svg width="1500" height="900" version="1.1" xmlns="http://www.w3.org/2000/svg">
    <defs>
        <style type="text/css"><![CDATA[
          #MyRect {
            stroke: green;
            fill: red;
          }
        ]]>
        </style>
    </defs>
    <rect id="MyRect" x="10" y="10" width="30" rx="10000" height="30" stroke="black" fill="transparent" stroke-width="5"/>
    <rect id="MyRect2" x="50" y="10" width="30" rx="10000" height="30" stroke="black" fill="transparent" stroke-width="5"/>
    <circle cx="25" cy="75" r="20" stroke="red" fill="transparent" stroke-width="5"/>
    <ellipse cx="75" cy="75" rx="20" ry="5" stroke="red" fill="transparent" stroke-width="5"/>
    <line x1="10" y1="110" x2="50" y2="150" stroke="black" stroke-width="5" />
    <polyline points="60 110, 65 120, 70 115, 75 130, 80 125, 85 140, 90 135, 95 150, 100 145, 120 160, 190,45"
      stroke="orange" fill="transparent" stroke-width="5"/>
    <polygon points="50 161, 55 180, 70 180, 60 190, 65 205, 50 195, 35 205, 40 190, 30 180, 45 180" stroke="orange" fill="transparent" stroke-width="5" />
    <path d="M 60 240 H 100 V 280 H 60 Z" stroke="red" stroke-width="5"></path>
    <path d="M10 10 C 20 20, 40 20, 50 10" stroke="black" fill="transparent" stroke-width="5"/>
    <polyline points="180 120, 195 100, 210 120"
      stroke="orange" fill="transparent" stroke-width="5" stroke-linecap="round" stroke-linejoin="round" />
    <path d="M 220 120 H 290" stroke="green" stroke-width="5" stroke-dasharray="0,6" stroke-linecap="round"></path>

    <defs>
      <linearGradient id="Gradient1">
        <stop class="stop1" offset="0%"/>
        <stop class="stop2" offset="50%"/>
        <stop class="stop3" offset="100%"/>
      </linearGradient>
      <linearGradient id="Gradient2" x1="0" x2="0" y1="0" y2="1">
        <stop offset="0%" stop-color="red"/>
        <stop offset="50%" stop-color="black" stop-opacity="0"/>
        <stop offset="100%" stop-color="blue"/>
      </linearGradient>
      <style type="text/css"><![CDATA[
        #rect1 { fill: url(#Gradient1); }
        .stop1 { stop-color: red; }
        .stop2 { stop-color: black; stop-opacity: 0; }
        .stop3 { stop-color: blue; }
      ]]></style>
    </defs>
    <rect id="rect1" x="150" y="150" rx="15" ry="15" width="100" height="100"/>
    <rect x="260" y="150" rx="15" ry="15" width="100" height="100" fill="url(#Gradient2)"/>

    <defs>
      <radialGradient id="RadialGradient1">
        <stop offset="0%" stop-color="red"/>
        <stop offset="100%" stop-color="blue"/>
      </radialGradient>
      <radialGradient id="RadialGradient2" cx="0.25" cy="0.25" r="0.25">
        <stop offset="0%" stop-color="red"/>
        <stop offset="100%" stop-color="blue"/>
      </radialGradient>
    </defs>
    <rect x="300" y="10" rx="15" ry="15" width="100" height="100" fill="url(#RadialGradient1)"/> 
    <rect x="420" y="10" rx="15" ry="15" width="100" height="100" fill="url(#RadialGradient2)"/>

  <defs>
    <linearGradient id="Gradient1">
      <stop offset="5%" stop-color="white"/>
      <stop offset="95%" stop-color="blue"/>
    </linearGradient>
    <linearGradient id="Gradient2" x1="0" x2="0" y1="0" y2="1">
      <stop offset="5%" stop-color="red"/>
      <stop offset="95%" stop-color="orange"/>
    </linearGradient>
    <pattern id="Pattern" x="0" y="0" width=".25" height=".25">
      <rect x="0" y="0" width="50" height="50" fill="skyblue"/>
      <rect x="0" y="0" width="25" height="25" fill="url(#Gradient2)"/>
      <circle cx="25" cy="25" r="20" fill="url(#Gradient1)" fill-opacity="0.5"/>
    </pattern>
  </defs>
  <rect fill="url(#Pattern)" stroke="black" x="350" y="300" width="200" height="200"/>

  <text x="100" y="100" >
    <tspan font-weight="bold" fill="red" rotate="10 12 14 16 18 90">塞防精钢弹坑扥该反拐海风看海风</tspan>
  </text>
  
  <path id="my_path" d="M 20,20 C 80,60 100,40 120,20" fill="transparent" />
  <text x="0" y="0">
    <textPath xmlns:xlink="http://www.w3.org/1999/xlink" xlink:href="#my_path">
      A curve dfgfdgdfgdfgfgdg.
    </textPath>
  </text>
  <circle cx="300" cy="320" r="30" fill="black"></circle>

  <defs>
    <clipPath id="cut-off-bottom">
      <rect x="520" y="0" width="200" height="100" />
    </clipPath>
  </defs>
  <circle cx="620" cy="100" r="100" clip-path="url(#cut-off-bottom)" />
  
  <defs>
    <filter id="MyFilter" filterUnits="userSpaceOnUse"
            x="142" y="612"
            width="200" height="120">
      <feGaussianBlur in="SourceAlpha" stdDeviation="4" result="blur"/>
      <feOffset in="blur" dx="4" dy="4" result="offsetBlur"/>

      <feSpecularLighting in="blur" surfaceScale="5" specularConstant=".75" 
                          specularExponent="20" lighting-color="#bbbbbb"  
                          result="specOut">
        <fePointLight x="-5000" y="-10000" z="20000"/>
      </feSpecularLighting>
      <feComposite in="specOut" in2="SourceAlpha" operator="in" result="specOut"/>
      <feComposite in="SourceGraphic" in2="specOut" operator="arithmetic" 
                   k1="0" k2="1" k3="1" k4="0" result="litPaint"/>
      <feMerge>
        <feMergeNode in="offsetBlur"/>
        <feMergeNode in="litPaint"/>
      </feMerge>
    </filter>
  </defs>
  <g filter="url(#MyFilter)">
    <circle cx="200" cy="683" r="21" fill="red" />
    <circle cx="276" cy="683" r="21" fill="red" />
    <rect fill="red" x="200" y="662" width="76" height="42"></rect>
    <path fill="none" stroke="red" stroke-width="10" 
              d="M190,713 c-50,0 -50,-60 0,-60 h100 c50,0 50,60 0,60z" />
    <text x="190" y="700" fill="#fff" stroke="black" font-size="45" font-family="Verdana">SVG</text>
  </g>
</svg>