<?xml version="1.0" standalone="no"?>
<?xml-stylesheet type="text/css" href="style.css"?>
<svg width="1500" height="1000" version="1.1" xmlns="http://www.w3.org/2000/svg">
    <defs>
        <style type="text/css"><![CDATA[
          #MyRect {
            stroke: green;
            fill: red;
          }
        ]]>
        </style>
    </defs>
    <rect id="MyRect" x="10" y="10" width="30" rx="10000" height="30" stroke="black" fill="transparent" stroke-width="5"/>
    <rect id="MyRect2" x="50" y="10" width="30" rx="10000" height="30" stroke="black" fill="transparent" stroke-width="5"/>
    <circle cx="25" cy="75" r="20" stroke="red" fill="transparent" stroke-width="5"/>
    <line x1="10" y1="110" x2="50" y2="150" stroke="black" stroke-width="5" />
    <polyline points="60 110, 65 120, 70 115, 75 130, 80 125, 85 140, 90 135, 95 150, 100 145, 120 160, 190,45"
      stroke="orange" fill="transparent" stroke-width="5"/>
    <polygon points="50 161, 55 180, 70 180, 60 190, 65 205, 50 195, 35 205, 40 190, 30 180, 45 180" stroke="orange" fill="transparent" stroke-width="5" />
    <path d="M 60 240 H 100 V 280 H 60 Z" stroke="red" stroke-width="5"></path>
    <path d="M10 10 C 20 20, 40 20, 50 10" stroke="black" fill="transparent" stroke-width="5"/>
    <polyline points="180 120, 195 100, 210 120"
      stroke="orange" fill="transparent" stroke-width="5" stroke-linecap="round" stroke-linejoin="round" />
    <path d="M 220 120 H 290" stroke="green" stroke-width="5" stroke-dasharray="0,6" stroke-linecap="round"></path>

    <defs>
      <linearGradient id="Gradient1">
        <stop class="stop1" offset="0%"/>
        <stop class="stop2" offset="50%"/>
        <stop class="stop3" offset="100%"/>
      </linearGradient>
      <linearGradient id="Gradient2" x1="0" x2="0" y1="0" y2="1">
        <stop offset="0%" stop-color="red"/>
        <stop offset="50%" stop-color="black" stop-opacity="0"/>
        <stop offset="100%" stop-color="blue"/>
      </linearGradient>
      <style type="text/css"><![CDATA[
        #rect1 { fill: url(#Gradient1); }
        .stop1 { stop-color: red; }
        .stop2 { stop-color: black; stop-opacity: 0; }
        .stop3 { stop-color: blue; }
      ]]></style>
    </defs>
    <rect id="rect1" x="150" y="150" rx="15" ry="15" width="100" height="100"/>
    <rect x="260" y="150" rx="15" ry="15" width="100" height="100" fill="url(#Gradient2)"/>
</svg>